<svg width="5" height="8" viewBox="0 0 5 8" fill="none" xmlns="http://www.w3.org/2000/svg">
<path d="M4.8262 4.96751C4.53119 4.90658 4.15096 4.78628 3.76089 4.55193C4.0854 4.50819 4.37713 4.34102 4.59894 4.16916C4.74972 4.05355 4.70929 3.73015 4.53993 3.69577C4.26678 3.63953 3.91058 3.52548 3.54892 3.29582C3.83082 3.26301 4.08431 3.11771 4.27661 2.97085C4.40445 2.87243 4.37058 2.59902 4.22744 2.56933C3.97068 2.51621 3.62759 2.40216 3.28778 2.16313C3.54127 2.15219 3.77072 2.02408 3.94117 1.89441C4.04497 1.81473 4.01766 1.59288 3.90075 1.56944C3.68659 1.52413 3.39814 1.42883 3.11406 1.2226C3.31619 1.21635 3.49975 1.1148 3.63415 1.01013C3.68113 0.974192 3.69861 0.891388 3.67348 0.824208C3.65928 0.785149 3.63305 0.760152 3.60246 0.753903C3.32493 0.696097 2.88679 0.528927 2.57102 0.0430416C2.53496 -0.01164 2.47378 -0.0147646 2.43554 0.0367923L2.43116 0.0430416C2.1143 0.527365 1.67725 0.696097 1.39973 0.753903C1.34728 0.764839 1.31122 0.833582 1.31887 0.908574C1.32324 0.952319 1.34182 0.989815 1.36804 1.01013C1.50352 1.1148 1.68599 1.21635 1.88813 1.2226C1.60405 1.42883 1.31559 1.52413 1.10144 1.56944C1.03479 1.58194 0.988898 1.67099 0.997639 1.76629C1.0031 1.82098 1.02605 1.86941 1.06101 1.89597C1.23037 2.02564 1.45982 2.15375 1.7144 2.16469C1.3735 2.40373 1.03042 2.51778 0.774743 2.5709C0.631609 2.60058 0.597738 2.87399 0.724482 2.97241C0.916785 3.11927 1.17027 3.26457 1.45217 3.29738C1.09051 3.52548 0.734316 3.63953 0.461159 3.69734C0.291802 3.73327 0.251375 4.05511 0.402158 4.17072C0.623961 4.34102 0.914599 4.50819 1.23911 4.55193C0.849042 4.78628 0.468808 4.90658 0.173799 4.96751C-0.0195962 5.00813 -0.0654865 5.37528 0.107148 5.50808C0.665481 5.93772 1.61169 6.35018 2.5 5.26436C3.3894 6.35018 4.33452 5.93772 4.89285 5.50808C5.06549 5.37684 5.0196 5.00813 4.8262 4.96751Z" fill="#C47B2A"/>
<path d="M3.91386 7.5313H2.94907L2.8704 5.77524C2.73929 5.67681 2.61473 5.5612 2.5 5.4284C2.38527 5.5612 2.26072 5.67837 2.1296 5.77524L2.05093 7.5313H1.08614C0.995454 7.5313 0.922248 7.63598 0.922248 7.76565C0.922248 7.89532 0.995454 8 1.08614 8H3.91277C4.00345 8 4.07666 7.89532 4.07666 7.76565C4.07666 7.63598 4.00345 7.5313 3.91386 7.5313Z" fill="#C47B2A"/>
</svg>
